# xmcd
#
# Track frame offsets: 
#        150
#        19475
#        42589
#        46076
#        62924
#        82058
#        86491
#        111404
#        128529
#        134889
#        159574
#        166460
#        192105
#        214259
#        233146
#        260262
#        275255
#        301083
#        323655
#
# Disc length: 4524 seconds
#
# Revision: 0
# Processed by: cddbd v1.5.2PL0 Copyright (c) Steve Scherf et al.
# Submitted via: ExactAudioCopy v0.99pb5
#
DISCID=0f11aa13
DTITLE=Berge, Björn - Live in Europe
DYEAR=2008
DGENRE=Blues
TTITLE0=Buena
TTITLE1=N.V.
TTITLE2=Introducing Louise
TTITLE3=Louise
TTITLE4=Trains
TTITLE5=Sissy Boys And Girlie Men
TTITLE6=Thursday
TTITLE7=Someday
TTITLE8=The Story Behind Stringmachine
TTITLE9=Stringmachine
TTITLE10=The New Guitar
TTITLE11=See That My Grave Is Kept Clean
TTITLE12=Bring It On Home
TTITLE13=Black Jesus
TTITLE14=Testify - Give It Away
TTITLE15=Angel Band
TTITLE16=Ace Of Spades
TTITLE17=13 Question Method
TTITLE18=Minutes
EXTD=
EXTT0=
EXTT1=
EXTT2=
EXTT3=
EXTT4=
EXTT5=
EXTT6=
EXTT7=
EXTT8=
EXTT9=
EXTT10=
EXTT11=
EXTT12=
EXTT13=
EXTT14=
EXTT15=
EXTT16=
EXTT17=
EXTT18=
PLAYORDER=
